<svg xmlns="http://www.w3.org/2000/svg" viewBox="0 0 32 32">
  <rect width="32" height="32" rx="6" fill="#F2F0E8"/>
  <g transform="translate(16,16) scale(0.26) translate(-50,-45)">
    <defs>
      <linearGradient id="wL" x1="0%" y1="0%" x2="100%" y2="100%">
        <stop offset="0%" stop-color="#A8D4A8"/>
        <stop offset="60%" stop-color="#8FBF8F"/>
        <stop offset="100%" stop-color="#3D5C3D"/>
      </linearGradient>
      <linearGradient id="wR" x1="100%" y1="0%" x2="0%" y2="100%">
        <stop offset="0%" stop-color="#A8D4A8"/>
        <stop offset="60%" stop-color="#8FBF8F"/>
        <stop offset="100%" stop-color="#3D5C3D"/>
      </linearGradient>
    </defs>
    <!-- Left upper wing -->
    <path d="M48 26 C42 14,28 4,12 6 C4 8,1 16,2 26 C3 36,12 44,28 45 C40 45,47 38,48 26Z" fill="url(#wL)" stroke="#1A1A1A" stroke-width="1.5"/>
    <!-- Left lower wing -->
    <path d="M48 40 C44 46,32 56,20 66 C12 74,12 82,20 86 C32 90,44 82,48 68 C51 56,50 46,48 40Z" fill="url(#wL)" stroke="#1A1A1A" stroke-width="1.5"/>
    <!-- Right upper wing -->
    <path d="M52 26 C58 14,72 4,88 6 C96 8,99 16,98 26 C97 36,88 44,72 45 C60 45,53 38,52 26Z" fill="url(#wR)" stroke="#1A1A1A" stroke-width="1.5"/>
    <!-- Right lower wing -->
    <path d="M52 40 C56 46,68 56,80 66 C88 74,88 82,80 86 C68 90,56 82,52 68 C49 56,50 46,52 40Z" fill="url(#wR)" stroke="#1A1A1A" stroke-width="1.5"/>
    <!-- Body -->
    <ellipse cx="50" cy="58" rx="3.5" ry="18" fill="#1A1A1A"/>
    <ellipse cx="50" cy="38" rx="4.5" ry="6" fill="#1A1A1A"/>
    <circle cx="50" cy="28" r="5.5" fill="#1A1A1A"/>
    <!-- Antennae -->
    <path d="M47 24 Q40 14,34 6" stroke="#1A1A1A" stroke-width="1.8" fill="none" stroke-linecap="round"/>
    <path d="M53 24 Q60 14,66 6" stroke="#1A1A1A" stroke-width="1.8" fill="none" stroke-linecap="round"/>
    <circle cx="34" cy="6" r="2.5" fill="#1A1A1A"/>
    <circle cx="66" cy="6" r="2.5" fill="#1A1A1A"/>
  </g>
</svg>
